# AST/ASF file generated using VICON BodyLanguage
# -----------------------------------------------
:version 1.10
:name VICON
:units
  mass 1.0
  length 0.45
  angle deg
:documentation
   .ast/.asf automatically generated from VICON data using
   VICON BodyBuilder and BodyLanguage model FoxedUp or BRILLIANT.MOD
:root
   order TX TY TZ RX RY RZ
   axis XYZ
   position 0 0 0  
   orientation 0 0 0 
:bonedata
  begin
     id 1 
     name lhipjoint
     direction 0.78388 -0.462562 0.414208 
     length 3.01181 
     axis 0 0 0  XYZ
  end
  begin
     id 2 
     name lfemur
     direction 0.34202 -0.939693 0  
     length 6.04673  
     axis 0 0 20  XYZ
    dof rx ry rz
    limits (-160.0 20.0)
           (-70.0 70.0)
           (-60.0 70.0)
  end
  begin
     id 3 
     name ltibia
     direction 0.34202 -0.939693 0   
     length 7.211   
     axis 0 0 20   XYZ
    dof rx
    limits (-10.0 170.0)
  end
  begin
     id 4 
     name lfoot
     direction 0.121887 -0.334882 0.934344   
     length 2.13567   
     axis -90 7.62852e-016 20   XYZ
    dof rx rz
    limits (-45.0 90.0)
           (-70.0 20.0)
  end
  begin
     id 5 
     name ltoes
     direction 1.53555e-011 -4.2179e-011 1   
     length 1.05957   
     axis -90 7.62852e-016 20   XYZ
    dof rx
    limits (-90.0 20.0)
  end
  begin
     id 6 
     name rhipjoint
     direction -0.769387 -0.475875 0.426129   
     length 2.92756  
     axis 0 0 0  XYZ 
  end
  begin
     id 7 
     name rfemur
     direction -0.34202 -0.939693 0   
     length 6.35468   
     axis 0 0 -20   XYZ
    dof rx ry rz
    limits (-160.0 20.0)
           (-70.0 70.0)
           (-70.0 60.0)
  end
  begin
     id 8 
     name rtibia
     direction -0.34202 -0.939693 0   
     length 7.37886   
     axis 0 0 -20   XYZ
    dof rx
    limits (-10.0 170.0)
 end
 begin
     id 9 
     name rfoot
     direction -0.101763 -0.279592 0.954711   
     length 2.21478  
     axis -90 -7.62852e-016 -20   XYZ
    dof rx rz
    limits (-45.0 90.0)
           (-20.0 70.0)
  end
  begin
     id 10 
     name rtoes
     direction -1.53494e-011 -4.21851e-011 1   
     length 1.10506   
     axis -90 -7.62852e-016 -20   XYZ
    dof rx
    limits (-90.0 20.0)
  end
  begin
     id 11 
     name lowerback
     direction 0.00747405 0.999267 0.0375481   
     length 2.13259   
     axis 0 0 0   XYZ
    dof rx ry rz
    limits (-20.0 45.0)
           (-30.0 30.0)
           (-30.0 30.0)
  end
  begin
     id 12 
     name upperback
     direction 0.00661626 0.996177 0.0871029   
     length 2.10528   
     axis 0 0 0   XYZ
    dof rx ry rz
    limits (-20.0 45.0)
           (-30.0 30.0)
           (-30.0 30.0)
  end
  begin
     id 13 
     name thorax
     direction 0.00320659 0.997679 0.0680167   
     length 2.11338   
     axis 0 0 0   XYZ
    dof rx ry rz
    limits (-20.0 45.0)
           (-30.0 30.0)
           (-30.0 30.0)
  end
  begin
     id 14 
     name lowerneck
     direction 0.0374841 0.973033 0.227602   
     length 1.42765   
     axis 0 0 0   XYZ
    dof rx ry rz
    limits (-20.0 45.0)
           (-30.0 30.0)
           (-30.0 30.0)
  end
  begin
     id 15 
     name upperneck
     direction 0.00481585 0.989155 -0.146795   
     length 1.47593   
     axis 0 0 0   XYZ
    dof rx ry rz
    limits (-20.0 45.0)
           (-30.0 30.0)
           (-30.0 30.0)
  end
  begin
     id 16
     name head
     direction -0.00292522 0.997206 -0.0746423  
     length 1.48116  
     axis 0 0 0   XYZ
    dof rx ry rz
    limits (-20.0 45.0)
           (-30.0 30.0)
           (-30.0 30.0)
  end
  begin
     id 17 
     name lclavicle
     direction 0.951444 0.305606 0.0368784  
     length 3.01855  
     axis 0 0 0   XYZ
    dof ry rz
    limits (-20.0 10.0)
           (0.0 20.0)
  end
  begin
     id 18 
     name lhumerus
     direction 1 -4.48977e-011 2.61664e-027   
     length 5.52731   
     axis 180 -30 -90   XYZ
    dof rx ry rz
    limits (-60.0 90.0)
           (-90.0 90.0)
           (-90.0 90.0)
  end
  begin
     id 19
     name lradius
     direction 1 -4.48944e-011 8.22157e-027   
     length 3.11059   
     axis 180 -30 -90   XYZ
    dof rx
    limits (-10.0 170.0)
  end
  begin
     id 20
     name lwrist
     direction 1 -4.48976e-011 1.5779e-026   
     length 1.5553   
     axis -1.15221e-014 90 90   XYZ
    dof ry
    limits (-180.0 0.0)
 end
  begin
     id 21 
     name lhand
     direction 1 -4.49025e-011 3.1558e-026   
     length 0.419626   
     axis -2.01367e-014 90 90   XYZ
    dof rx rz
    limits (-90.0 90.0)
           (-45.0 45.0)
  end
  begin
     id 22 
     name lfingers
     direction 1 -4.4904e-011 6.31161e-026   
     length 0.338313   
     axis -4.02734e-014 90 90   XYZ
    dof rx
    limits (0.0 90.0)
  end
  begin
     id 23
     name lthumb
     direction 0.707107 -6.35004e-011 0.707107   
     length 0.485752   
     axis -90 45 2.85299e-015   XYZ
    dof rx rz
    limits (-45.0 45.0)
           (-45.0 45.0)
  end
  begin
     id 24 
     name rclavicle
     direction -0.968876 0.223791 0.105816   
     length 3.04177  
     axis 0 0 0   XYZ 
    dof ry rz
    limits (-10.0 20.0)
           (-20.0 0.0)
  end
  begin
     id 25 
     name rhumerus
     direction -1 -4.48962e-011 -1.01384e-027  
     length 5.25396   
     axis 180 30 90   XYZ
    dof rx ry rz
    limits (-90.0 60.0)
           (-90.0 90.0)
           (-90.0 90.0)
  end
  begin
     id 26 
     name rradius
     direction -1 -4.48955e-011 8.88542e-027   
     length 3.10567   
     axis 180 30 90   XYZ
    dof rx
    limits (-10.0 170.0)
  end
  begin
     id 27 
     name rwrist
     direction -1 -4.48994e-011 1.5779e-026   
     length 1.55283   
     axis -1.15221e-014 -90 -90   XYZ
    dof ry
    limits (-180.0 0.0)
  end
  begin
     id 28
     name rhand
     direction -1 -4.48891e-011 3.1558e-026   
     length 0.498676   
     axis -2.01367e-014 -90 -90   XYZ
    dof rx rz
    limits (-90.0 90.0)
           (-45.0 45.0)
  end
  begin
     id 29
     name rfingers
     direction -1 -4.48972e-011 6.31161e-026   
     length 0.402045   
     axis -4.02734e-014 -90 -90   XYZ
    dof rx
    limits (0.0 90.0)
  end
  begin
     id 30
     name rthumb
     direction -0.707107 -6.34849e-011 0.707107   
     length 0.577259   
     axis -90 -45 -2.85299e-015   XYZ
    dof rx rz
    limits (-45.0 45.0)
           (-45.0 45.0)
  end
:hierarchy
  begin
    root lhipjoint rhipjoint lowerback
    lhipjoint lfemur
    lfemur ltibia
    ltibia lfoot
    lfoot ltoes
    rhipjoint rfemur
    rfemur rtibia
    rtibia rfoot
    rfoot rtoes
    lowerback upperback
    upperback thorax
    thorax lowerneck lclavicle rclavicle
    lowerneck upperneck
    upperneck head
    lclavicle lhumerus
    lhumerus lradius
    lradius lwrist
    lwrist lhand lthumb
    lhand lfingers
    rclavicle rhumerus
    rhumerus rradius
    rradius rwrist
    rwrist rhand rthumb
    rhand rfingers
  end

#!OML:ASF H:\Pregnant\Project 1\Capture day 1\Session 1\femalepreg.ASF
:FULLY-SPECIFIED
:DEGREES
143
root 1.51846 2.36807 16.2186 -70.7538 -1.61122 120.196
lowerback -5.39239 -0.0560532 -4.6706
upperback -8.30719 -0.372818 -1.16111
thorax -5.62594 -0.119609 1.41524
lowerneck -14.7583 10.6594 23.1211
upperneck 19.3737 15.8878 -26.115
head 13.3894 6.64528 -11.6213
rclavicle -4.45278e-014 -7.23576e-014
rhumerus 106.124 30.6734 -84.6827
rradius 133.365
rwrist -39.8383
rhand 6.54559 -12.0807
rfingers 7.12502
rthumb 31.843 -39.318
lclavicle -4.45278e-014 -7.23576e-014
lhumerus 15.5913 -30.9575 96.3697
lradius 130.109
lwrist 13.6807
lhand -32.427 -13.0977
lfingers 7.12502
lthumb -5.66098 16.8067
rfemur -72.456 10.5416 28.9431
rtibia 138.846
rfoot -17.9483 -14.3627
rtoes 27.3439
lfemur -60.9509 16.0963 -45.8804
ltibia 70.8934
lfoot 14.2201 2.96993
ltoes -27.0604
144
root 1.51796 2.36722 16.2187 -70.7464 -1.60241 120.212
lowerback -5.39254 -0.0497492 -4.66325
upperback -8.31751 -0.366976 -1.1868
thorax -5.63742 -0.118247 1.38444
lowerneck -14.7828 10.6646 23.1386
upperneck 19.4061 15.8849 -26.0902
head 13.405 6.64565 -11.6163
rclavicle 9.54166e-015 1.11319e-014
rhumerus 106.098 30.6584 -84.7204
rradius 133.367
rwrist -39.8242
rhand 6.54378 -12.0724
rfingers 7.12502
rthumb 31.8413 -39.3101
lclavicle 9.54166e-015 1.11319e-014
lhumerus 15.5764 -30.9855 96.3385
lradius 130.128
lwrist 13.6912
lhand -32.4332 -13.075
lfingers 7.12502
lthumb -5.66697 16.8292
rfemur -72.4593 10.5704 28.9429
rtibia 138.842
rfoot -17.9961 -14.3816
rtoes 27.4196
lfemur -60.9619 16.1081 -45.8995
ltibia 70.8791
lfoot 14.2589 2.95969
ltoes -26.9923
145
root 1.51742 2.36628 16.2186 -70.7453 -1.59964 120.228
lowerback -5.38777 -0.0423827 -4.65073
upperback -8.32215 -0.358898 -1.20261
thorax -5.64556 -0.115542 1.36106
lowerneck -14.8239 10.6712 23.1186
upperneck 19.4387 15.8878 -26.0548
head 13.4207 6.64494 -11.5969
rclavicle 6.36111e-015 9.06458e-014
rhumerus 106.097 30.6609 -84.7195
rradius 133.362
rwrist -39.7895
rhand 6.54179 -12.06
rfingers 7.12502
rthumb 31.8394 -39.2981
lclavicle 6.36111e-015 9.06458e-014
lhumerus 15.5717 -31.0086 96.3187
lradius 130.146
lwrist 13.6966
lhand -32.4412 -13.0521
lfingers 7.12502
lthumb -5.67474 16.852
rfemur -72.4524 10.599 28.9498
rtibia 138.833
rfoot -18.0417 -14.3984
rtoes 27.4937
lfemur -60.968 16.1251 -45.9101
ltibia 70.8672
lfoot 14.2945 2.95005
ltoes -26.9216
146
root 1.51682 2.3653 16.2184 -70.7477 -1.60029 120.243
lowerback -5.37947 -0.0352253 -4.63638
upperback -8.32747 -0.351336 -1.21811
thorax -5.65636 -0.113123 1.33698
lowerneck -14.8555 10.6769 23.1059
upperneck 19.466 15.8887 -26.021
head 13.4324 6.64455 -11.5797
rclavicle 5.08889e-014 2.78299e-014
rhumerus 106.089 30.6616 -84.726
rradius 133.359
rwrist -39.7569
rhand 6.54174 -12.047
rfingers 7.12502
rthumb 31.8394 -39.2851
lclavicle 5.08889e-014 2.78299e-014
lhumerus 15.5617 -31.0333 96.2997
lradius 130.167
lwrist 13.7001
lhand -32.4523 -13.029
lfingers 7.12502
lthumb -5.68542 16.8747
rfemur -72.44 10.6258 28.9601
rtibia 138.821
rfoot -18.0851 -14.4137
rtoes 27.5675
lfemur -60.9719 16.1442 -45.9155
ltibia 70.858
lfoot 14.3275 2.93978
ltoes -26.8414
147
root 1.51622 2.36417 16.218 -70.7567 -1.60798 120.257
lowerback -5.36506 -0.0278664 -4.61832
upperback -8.33124 -0.343451 -1.22946
thorax -5.6689 -0.110462 1.31519
lowerneck -14.8844 10.6832 23.0908
upperneck 19.4898 15.8912 -25.9868
head 13.4424 6.64495 -11.561
rclavicle 6.36111e-015 2.94201e-014
rhumerus 106.085 30.6663 -84.7273
rradius 133.353
rwrist -39.7216
rhand 6.54019 -12.0345
rfingers 7.12502
rthumb 31.8379 -39.2728
lclavicle 6.36111e-015 2.94201e-014
lhumerus 15.5495 -31.0572 96.2846
lradius 130.189
lwrist 13.701
lhand -32.4666 -13.0062
lfingers 7.12502
lthumb -5.69925 16.8972
rfemur -72.4168 10.6513 28.9795
rtibia 138.806
rfoot -18.1262 -14.4272
rtoes 27.6399
lfemur -60.9714 16.1705 -45.9114
ltibia 70.8512
lfoot 14.3562 2.9321
ltoes -26.7467
148
root 1.51556 2.36308 16.2175 -70.7651 -1.61704 120.272
lowerback -5.35007 -0.0213697 -4.6009
upperback -8.34172 -0.33793 -1.25002
thorax -5.68894 -0.109352 1.28414
lowerneck -14.8807 10.6866 23.1281
upperneck 19.5039 15.8851 -25.9702
head 13.4467 6.64711 -11.5631
rclavicle -3.18055e-015 2.62396e-014
rhumerus 106.046 30.6501 -84.7817
rradius 133.357
rwrist -39.713
rhand 6.53678 -12.0253
rfingers 7.12502
rthumb 31.8347 -39.2642
lclavicle -3.18055e-015 2.62396e-014
lhumerus 15.5217 -31.085 96.2573
lradius 130.212
lwrist 13.7054
lhand -32.4788 -12.9888
lfingers 7.12502
lthumb -5.71099 16.9142
rfemur -72.392 10.6728 28.998
rtibia 138.788
rfoot -18.1688 -14.437
rtoes 27.7103
lfemur -60.9717 16.1975 -45.9062
ltibia 70.845
lfoot 14.3805 2.93562
ltoes -26.6747
149
root 1.51482 2.3621 16.2169 -70.7722 -1.62049 120.289
lowerback -5.33565 -0.0160041 -4.58811
upperback -8.35283 -0.334015 -1.27249
thorax -5.7093 -0.108888 1.25368
lowerneck -14.8746 10.6901 23.1712
upperneck 19.5148 15.8796 -25.9608
head 13.451 6.6497 -11.5694
rclavicle -7.95139e-014 -1.08139e-013
rhumerus 106.011 30.6353 -84.8395
rradius 133.357
rwrist -39.7074
rhand 6.5315 -12.0147
rfingers 7.12502
rthumb 31.8296 -39.2546
lclavicle -7.95139e-014 -1.08139e-013
lhumerus 15.4941 -31.1086 96.2278
lradius 130.235
lwrist 13.7124
lhand -32.4876 -12.9748
lfingers 7.12502
lthumb -5.71956 16.928
rfemur -72.3694 10.6897 29.0078
rtibia 138.771
rfoot -18.2108 -14.443
rtoes 27.7807
lfemur -60.9704 16.2228 -45.9071
ltibia 70.8372
lfoot 14.4015 2.94657
ltoes -26.6294
150
root 1.51406 2.36117 16.2164 -70.7779 -1.62123 120.307
lowerback -5.32229 -0.0104093 -4.57909
upperback -8.36617 -0.330105 -1.29786
thorax -5.73153 -0.108375 1.2223
lowerneck -14.86 10.6909 23.2233
upperneck 19.5213 15.8683 -25.9515
head 13.4507 6.65105 -11.5785
rclavicle -6.04305e-014 -4.6118e-014
rhumerus 105.972 30.6135 -84.9081
rradius 133.354
rwrist -39.7089
rhand 6.52551 -12.0051
rfingers 7.12502
rthumb 31.8239 -39.2462
lclavicle -6.04305e-014 -4.6118e-014
lhumerus 15.4608 -31.1351 96.1993
lradius 130.256
lwrist 13.7166
lhand -32.492 -12.9621
lfingers 7.12502
lthumb -5.72372 16.9406
rfemur -72.3485 10.7047 29.0137
rtibia 138.756
rfoot -18.2547 -14.4472
rtoes 27.8501
lfemur -60.9686 16.2465 -45.9107
ltibia 70.828
lfoot 14.4193 2.96683
ltoes -26.6098
151
root 1.51329 2.36036 16.2159 -70.7785 -1.61697 120.327
lowerback -5.3132 -0.00430234 -4.57295
upperback -8.38142 -0.325705 -1.32707
thorax -5.7535 -0.107715 1.18851
lowerneck -14.8423 10.6888 23.2757
upperneck 19.5241 15.8513 -25.939
head 13.4459 6.6503 -11.587
rclavicle -8.90555e-014 -4.92986e-014
rhumerus 105.93 30.5861 -84.9837
rradius 133.353
rwrist -39.7167
rhand 6.5205 -11.9972
rfingers 7.12502
rthumb 31.8192 -39.2392
lclavicle -8.90555e-014 -4.92986e-014
lhumerus 15.4296 -31.1608 96.1686
lradius 130.272
lwrist 13.7215
lhand -32.4886 -12.9532
lfingers 7.12502
lthumb -5.7205 16.9496
rfemur -72.3348 10.7189 29.0124
rtibia 138.742
rfoot -18.3015 -14.451
rtoes 27.919
lfemur -60.9702 16.2668 -45.9212
ltibia 70.8178
lfoot 14.4351 2.99093
ltoes -26.6175
